<mxfile host="65bd71144e">
    <diagram id="z8Vsb6nGXZevrCQU7suJ" name="Page-1">
        <mxGraphModel dx="1458" dy="1033" grid="1" gridSize="10" guides="1" tooltips="1" connect="1" arrows="1" fold="1" page="1" pageScale="1" pageWidth="850" pageHeight="1100" background="none" math="0" shadow="0">
            <root>
                <mxCell id="0"/>
                <mxCell id="1" parent="0"/>
                <mxCell id="16" style="edgeStyle=none;hachureGap=4;html=1;fontFamily=Architects Daughter;fontSource=https%3A%2F%2Ffonts.googleapis.com%2Fcss%3Ffamily%3DArchitects%2BDaughter;fontSize=16;snapToPoint=0;fixDash=0;backgroundOutline=0;metaEdit=0;strokeWidth=1;strokeColor=#FF9933;" edge="1" parent="1">
                    <mxGeometry relative="1" as="geometry">
                        <mxPoint x="360" y="301.5" as="targetPoint"/>
                        <mxPoint x="223" y="301.5" as="sourcePoint"/>
                    </mxGeometry>
                </mxCell>
                <mxCell id="17" style="edgeStyle=none;hachureGap=4;html=1;fontFamily=Architects Daughter;fontSource=https%3A%2F%2Ffonts.googleapis.com%2Fcss%3Ffamily%3DArchitects%2BDaughter;fontSize=16;snapToPoint=0;fixDash=0;backgroundOutline=0;metaEdit=0;strokeWidth=1;strokeColor=#FF9933;" edge="1" parent="1">
                    <mxGeometry relative="1" as="geometry">
                        <mxPoint x="189.5" y="370" as="targetPoint"/>
                        <mxPoint x="189.5" y="519" as="sourcePoint"/>
                    </mxGeometry>
                </mxCell>
                <mxCell id="5" value="" style="aspect=fixed;perimeter=ellipsePerimeter;html=1;align=center;shadow=0;spacingTop=3;image;image=img/lib/active_directory/internet_globe.svg;hachureGap=4;fontFamily=Architects Daughter;fontSource=https%3A%2F%2Ffonts.googleapis.com%2Fcss%3Ffamily%3DArchitects%2BDaughter;fontSize=20;snapToPoint=0;fixDash=0;backgroundOutline=0;metaEdit=0;strokeWidth=1;" vertex="1" parent="1">
                    <mxGeometry x="414" y="532" width="50" height="50" as="geometry"/>
                </mxCell>
                <mxCell id="10" value="" style="points=[[0,0,0],[0.25,0,0],[0.5,0,0],[0.75,0,0],[1,0,0],[0,1,0],[0.25,1,0],[0.5,1,0],[0.75,1,0],[1,1,0],[0,0.25,0],[0,0.5,0],[0,0.75,0],[1,0.25,0],[1,0.5,0],[1,0.75,0]];outlineConnect=0;fontColor=#232F3E;gradientColor=#4D72F3;gradientDirection=north;fillColor=#3334B9;strokeColor=#ffffff;verticalLabelPosition=bottom;verticalAlign=top;align=center;html=1;fontSize=12;fontStyle=0;aspect=fixed;shape=mxgraph.aws4.resourceIcon;resIcon=mxgraph.aws4.xray;hachureGap=4;fontFamily=Architects Daughter;fontSource=https%3A%2F%2Ffonts.googleapis.com%2Fcss%3Ffamily%3DArchitects%2BDaughter;snapToPoint=0;fixDash=0;backgroundOutline=0;metaEdit=0;strokeWidth=1;" vertex="1" parent="1">
                    <mxGeometry x="530" y="250" width="78" height="78" as="geometry"/>
                </mxCell>
                <mxCell id="12" style="edgeStyle=none;hachureGap=4;html=1;fontFamily=Architects Daughter;fontSource=https%3A%2F%2Ffonts.googleapis.com%2Fcss%3Ffamily%3DArchitects%2BDaughter;fontSize=16;snapToPoint=0;fixDash=0;backgroundOutline=0;metaEdit=0;strokeWidth=1;strokeColor=#FF9933;" edge="1" parent="1" target="5">
                    <mxGeometry relative="1" as="geometry">
                        <mxPoint x="440" y="370" as="sourcePoint"/>
                    </mxGeometry>
                </mxCell>
                <mxCell id="11" value="" style="points=[[0,0,0],[0.25,0,0],[0.5,0,0],[0.75,0,0],[1,0,0],[0,1,0],[0.25,1,0],[0.5,1,0],[0.75,1,0],[1,1,0],[0,0.25,0],[0,0.5,0],[0,0.75,0],[1,0.25,0],[1,0.5,0],[1,0.75,0]];points=[[0,0,0],[0.25,0,0],[0.5,0,0],[0.75,0,0],[1,0,0],[0,1,0],[0.25,1,0],[0.5,1,0],[0.75,1,0],[1,1,0],[0,0.25,0],[0,0.5,0],[0,0.75,0],[1,0.25,0],[1,0.5,0],[1,0.75,0]];outlineConnect=0;fontColor=#232F3E;gradientColor=#F34482;gradientDirection=north;fillColor=#BC1356;strokeColor=#ffffff;verticalLabelPosition=bottom;verticalAlign=top;align=center;html=1;fontSize=12;fontStyle=0;aspect=fixed;shape=mxgraph.aws4.resourceIcon;resIcon=mxgraph.aws4.cloudformation;hachureGap=4;fontFamily=Architects Daughter;fontSource=https%3A%2F%2Ffonts.googleapis.com%2Fcss%3Ffamily%3DArchitects%2BDaughter;snapToPoint=0;fixDash=0;backgroundOutline=0;metaEdit=0;strokeWidth=1;" vertex="1" parent="1">
                    <mxGeometry x="400" y="250" width="78" height="78" as="geometry"/>
                </mxCell>
                <mxCell id="14" value="" style="edgeStyle=none;hachureGap=4;html=1;fontFamily=Architects Daughter;fontSource=https%3A%2F%2Ffonts.googleapis.com%2Fcss%3Ffamily%3DArchitects%2BDaughter;fontSize=16;snapToPoint=0;fixDash=0;backgroundOutline=0;metaEdit=0;strokeWidth=1;rounded=1;strokeColor=#FF9933;" edge="1" parent="1" source="5">
                    <mxGeometry relative="1" as="geometry">
                        <mxPoint x="570" y="380" as="targetPoint"/>
                        <Array as="points">
                            <mxPoint x="570" y="557"/>
                        </Array>
                    </mxGeometry>
                </mxCell>
                <mxCell id="15" style="edgeStyle=none;hachureGap=4;html=1;fontFamily=Architects Daughter;fontSource=https%3A%2F%2Ffonts.googleapis.com%2Fcss%3Ffamily%3DArchitects%2BDaughter;fontSize=16;snapToPoint=0;fixDash=0;backgroundOutline=0;metaEdit=0;strokeWidth=1;strokeColor=#FF9933;" edge="1" parent="1">
                    <mxGeometry relative="1" as="geometry">
                        <mxPoint x="210" y="550.5444685466377" as="sourcePoint"/>
                        <mxPoint x="420" y="551" as="targetPoint"/>
                    </mxGeometry>
                </mxCell>
                <mxCell id="19" value="&lt;font style=&quot;font-size: 14px;&quot;&gt;AWS Management Console&lt;/font&gt;" style="text;html=1;align=center;verticalAlign=middle;resizable=0;points=[];autosize=1;strokeColor=none;fillColor=none;fontSize=20;fontFamily=Architects Daughter;hachureGap=4;fontSource=https%3A%2F%2Ffonts.googleapis.com%2Fcss%3Ffamily%3DArchitects%2BDaughter;snapToPoint=0;fixDash=0;backgroundOutline=0;metaEdit=0;strokeWidth=1;" vertex="1" parent="1">
                    <mxGeometry x="96.5" y="333" width="190" height="40" as="geometry"/>
                </mxCell>
                <mxCell id="20" value="User" style="text;html=1;align=center;verticalAlign=middle;resizable=0;points=[];autosize=1;strokeColor=none;fillColor=none;fontSize=14;fontFamily=Architects Daughter;hachureGap=4;fontSource=https%3A%2F%2Ffonts.googleapis.com%2Fcss%3Ffamily%3DArchitects%2BDaughter;snapToPoint=0;fixDash=0;backgroundOutline=0;metaEdit=0;strokeWidth=1;" vertex="1" parent="1">
                    <mxGeometry x="164.5" y="582" width="50" height="30" as="geometry"/>
                </mxCell>
                <mxCell id="21" value="Internet" style="text;html=1;align=center;verticalAlign=middle;resizable=0;points=[];autosize=1;strokeColor=none;fillColor=none;fontSize=14;fontFamily=Architects Daughter;hachureGap=4;fontSource=https%3A%2F%2Ffonts.googleapis.com%2Fcss%3Ffamily%3DArchitects%2BDaughter;snapToPoint=0;fixDash=0;backgroundOutline=0;metaEdit=0;strokeWidth=1;" vertex="1" parent="1">
                    <mxGeometry x="404" y="582" width="70" height="30" as="geometry"/>
                </mxCell>
                <mxCell id="22" value="Signup into the Application" style="text;html=1;align=center;verticalAlign=middle;resizable=0;points=[];autosize=1;strokeColor=none;fillColor=none;fontSize=14;fontFamily=Architects Daughter;hachureGap=4;fontSource=https%3A%2F%2Ffonts.googleapis.com%2Fcss%3Ffamily%3DArchitects%2BDaughter;snapToPoint=0;fixDash=0;backgroundOutline=0;metaEdit=0;strokeWidth=1;" vertex="1" parent="1">
                    <mxGeometry x="214.5" y="510" width="190" height="30" as="geometry"/>
                </mxCell>
                <mxCell id="35" value="" style="edgeStyle=none;html=1;" edge="1" parent="1" source="24" target="26">
                    <mxGeometry relative="1" as="geometry"/>
                </mxCell>
                <mxCell id="25" value="AWS&lt;br&gt;X-Ray" style="text;html=1;align=center;verticalAlign=middle;resizable=0;points=[];autosize=1;strokeColor=none;fillColor=none;fontSize=14;fontFamily=Architects Daughter;hachureGap=4;fontSource=https%3A%2F%2Ffonts.googleapis.com%2Fcss%3Ffamily%3DArchitects%2BDaughter;snapToPoint=0;fixDash=0;backgroundOutline=0;metaEdit=0;strokeWidth=1;" vertex="1" parent="1">
                    <mxGeometry x="539" y="328" width="60" height="50" as="geometry"/>
                </mxCell>
                <mxCell id="26" value="Host Sample&lt;br&gt;Application" style="text;html=1;align=center;verticalAlign=middle;resizable=0;points=[];autosize=1;strokeColor=none;fillColor=none;fontSize=14;fontFamily=Architects Daughter;hachureGap=4;fontSource=https%3A%2F%2Ffonts.googleapis.com%2Fcss%3Ffamily%3DArchitects%2BDaughter;rotation=270;snapToPoint=0;fixDash=0;backgroundOutline=0;metaEdit=0;strokeWidth=1;" vertex="1" parent="1">
                    <mxGeometry x="364" y="400" width="100" height="50" as="geometry"/>
                </mxCell>
                <mxCell id="27" value="Monitor the&lt;br&gt;Traffic" style="text;html=1;align=center;verticalAlign=middle;resizable=0;points=[];autosize=1;strokeColor=none;fillColor=none;fontSize=14;fontFamily=Architects Daughter;hachureGap=4;fontSource=https%3A%2F%2Ffonts.googleapis.com%2Fcss%3Ffamily%3DArchitects%2BDaughter;snapToPoint=0;fixDash=0;backgroundOutline=0;metaEdit=0;strokeWidth=1;" vertex="1" parent="1">
                    <mxGeometry x="464" y="500" width="100" height="50" as="geometry"/>
                </mxCell>
                <mxCell id="28" value="Login to AWS&lt;br&gt;Management&lt;br&gt;Console" style="text;html=1;align=center;verticalAlign=middle;resizable=0;points=[];autosize=1;strokeColor=none;fillColor=none;fontSize=14;fontFamily=Architects Daughter;hachureGap=4;fontSource=https%3A%2F%2Ffonts.googleapis.com%2Fcss%3Ffamily%3DArchitects%2BDaughter;rotation=270;snapToPoint=0;fixDash=0;backgroundOutline=0;metaEdit=0;strokeWidth=1;" vertex="1" parent="1">
                    <mxGeometry x="96.5" y="420" width="110" height="60" as="geometry"/>
                </mxCell>
                <mxCell id="30" value="Create and&amp;nbsp;&lt;br&gt;Configure AWS&lt;br&gt;Resources" style="text;html=1;align=center;verticalAlign=middle;resizable=0;points=[];autosize=1;strokeColor=none;fillColor=none;fontSize=14;fontFamily=Architects Daughter;hachureGap=4;fontSource=https%3A%2F%2Ffonts.googleapis.com%2Fcss%3Ffamily%3DArchitects%2BDaughter;snapToPoint=0;fixDash=0;backgroundOutline=0;metaEdit=0;strokeWidth=1;" vertex="1" parent="1">
                    <mxGeometry x="223" y="240" width="130" height="60" as="geometry"/>
                </mxCell>
                <mxCell id="31" value="" style="outlineConnect=0;fontColor=#232F3E;gradientColor=none;fillColor=#FF9933;strokeColor=none;dashed=0;verticalLabelPosition=bottom;verticalAlign=top;align=center;html=1;fontSize=12;fontStyle=0;aspect=fixed;pointerEvents=1;shape=mxgraph.aws4.user;hachureGap=4;strokeWidth=1;fontFamily=Architects Daughter;fontSource=https%3A%2F%2Ffonts.googleapis.com%2Fcss%3Ffamily%3DArchitects%2BDaughter;" vertex="1" parent="1">
                    <mxGeometry x="160.5" y="528" width="58" height="58" as="geometry"/>
                </mxCell>
                <mxCell id="32" value="AWS" style="points=[[0,0],[0.25,0],[0.5,0],[0.75,0],[1,0],[1,0.25],[1,0.5],[1,0.75],[1,1],[0.75,1],[0.5,1],[0.25,1],[0,1],[0,0.75],[0,0.5],[0,0.25]];outlineConnect=0;gradientColor=none;html=1;whiteSpace=wrap;fontSize=12;fontStyle=0;container=1;pointerEvents=0;collapsible=0;recursiveResize=0;shape=mxgraph.aws4.group;grIcon=mxgraph.aws4.group_ec2_instance_contents;strokeColor=#D86613;fillColor=none;verticalAlign=top;align=left;spacingLeft=30;fontColor=#D86613;dashed=0;hachureGap=4;strokeWidth=1;fontFamily=Architects Daughter;fontSource=https%3A%2F%2Ffonts.googleapis.com%2Fcss%3Ffamily%3DArchitects%2BDaughter;" vertex="1" parent="1">
                    <mxGeometry x="364" y="200" width="280" height="278" as="geometry"/>
                </mxCell>
                <mxCell id="24" value="AWS &lt;br&gt;CloudFormation" style="text;html=1;align=center;verticalAlign=middle;resizable=0;points=[];autosize=1;strokeColor=none;fillColor=none;fontSize=14;fontFamily=Architects Daughter;hachureGap=4;fontSource=https%3A%2F%2Ffonts.googleapis.com%2Fcss%3Ffamily%3DArchitects%2BDaughter;snapToPoint=0;fixDash=0;backgroundOutline=0;metaEdit=0;strokeWidth=1;" vertex="1" parent="32">
                    <mxGeometry x="15" y="123" width="120" height="50" as="geometry"/>
                </mxCell>
                <mxCell id="34" value="Client" style="outlineConnect=0;fontColor=#232F3E;gradientColor=none;strokeColor=#FF9933;fillColor=none;dashed=0;verticalLabelPosition=bottom;verticalAlign=top;align=center;html=1;fontSize=12;fontStyle=0;aspect=fixed;shape=mxgraph.aws4.resourceIcon;resIcon=mxgraph.aws4.client;rounded=0;hachureGap=4;strokeWidth=1;fontFamily=Architects Daughter;fontSource=https%3A%2F%2Ffonts.googleapis.com%2Fcss%3Ffamily%3DArchitects%2BDaughter;shadow=0;" vertex="1" parent="1">
                    <mxGeometry x="151" y="268" width="72" height="72" as="geometry"/>
                </mxCell>
            </root>
        </mxGraphModel>
    </diagram>
</mxfile>